<?xml version="1.0" encoding="UTF-8" standalone="no"?>
<!-- Created with Inkscape (http://www.inkscape.org/) -->

<svg
   xmlns:dc="http://purl.org/dc/elements/1.1/"
   xmlns:cc="http://creativecommons.org/ns#"
   xmlns:rdf="http://www.w3.org/1999/02/22-rdf-syntax-ns#"
   xmlns:svg="http://www.w3.org/2000/svg"
   xmlns="http://www.w3.org/2000/svg"
   xmlns:sodipodi="http://sodipodi.sourceforge.net/DTD/sodipodi-0.dtd"
   xmlns:inkscape="http://www.inkscape.org/namespaces/inkscape"
   width="500"
   height="500"
   id="svg2"
   version="1.1"
   inkscape:version="0.48.2 r9819"
   sodipodi:docname="Nuovo documento 1">
  <defs
     id="defs4" />
  <sodipodi:namedview
     id="base"
     pagecolor="#ffffff"
     bordercolor="#666666"
     borderopacity="1.0"
     inkscape:pageopacity="0.0"
     inkscape:pageshadow="2"
     inkscape:zoom="0.7"
     inkscape:cx="375"
     inkscape:cy="341.63884"
     inkscape:document-units="px"
     inkscape:current-layer="layer1"
     showgrid="false"
     inkscape:window-width="1920"
     inkscape:window-height="1070"
     inkscape:window-x="0"
     inkscape:window-y="0"
     inkscape:window-maximized="1" />
  <metadata
     id="metadata7">
    <rdf:RDF>
      <cc:Work
         rdf:about="">
        <dc:format>image/svg+xml</dc:format>
        <dc:type
           rdf:resource="http://purl.org/dc/dcmitype/StillImage" />
        <dc:title></dc:title>
      </cc:Work>
    </rdf:RDF>
  </metadata>
  <g
     inkscape:label="Livello 1"
     inkscape:groupmode="layer"
     id="layer1"
     transform="translate(0,-552.36218)">
    <path
       inkscape:connector-curvature="0"
       id="path3008"
       d="m 224.99088,1013.5269 c -1.87699,-7.2794 -10.93147,-23.68292 -21.58438,-39.10319 -14.02524,-20.30175 -16.42342,-25.18286 -18.12318,-36.88684 -1.00163,-6.89693 0.0856,-15.2008 2.63672,-20.13865 2.1116,-4.08712 5.16878,-7.09504 7.21121,-7.09504 2.12405,0 2.10689,-0.51669 0.22151,6.67017 -1.85993,7.08987 -1.15628,14.76714 1.67572,18.28307 2.8194,3.50028 7.61104,3.31116 10.83247,-0.42756 3.71101,-4.30693 4.13264,-9.75251 1.59036,-20.54003 -2.59012,-10.99053 -5.47204,-16.87428 -11.18836,-22.84226 -2.34642,-2.44972 -4.26621,-4.9407 -4.26621,-5.53552 0,-2.28758 4.4215,-0.91816 8.87433,2.74853 5.23328,4.30933 5.71096,3.9985 2.26113,-1.47136 -2.20701,-3.49932 -3.2948,-8.96294 -1.78448,-8.96294 0.36078,0 2.07982,1.51805 3.82007,3.37343 3.69135,3.93556 7.39124,4.20025 7.9184,0.5665 0.24573,-1.69378 -1.77001,-4.29408 -8.8602,-11.42962 -7.67572,-7.7248 -9.42871,-10.06044 -10.70787,-14.26689 -2.04476,-6.7241 -0.60449,-7.85685 3.17281,-2.49538 5.33413,7.57117 11.96523,11.60496 15.50212,9.43015 2.32198,-1.42778 2.38603,-3.76348 0.15437,-5.6295 -5.34478,-4.4691 0.94646,-5.61309 7.73788,-1.40705 7.46518,4.62333 11.76932,10.69569 12.88253,18.17495 0.48417,3.253 0.29102,4.62326 -0.77328,5.48586 -1.15233,0.93392 -1.61684,0.78816 -2.47429,-0.77645 -1.37603,-2.51087 -4.31483,-4.0074 -6.3626,-3.24001 -2.4652,0.92381 -1.43997,9.22594 1.9125,15.48714 1.4877,2.77849 3.70519,8.8892 4.92777,13.57936 l 2.22286,8.52755 0.0763,-9.58755 c 0.1174,-14.75513 2.90497,-26.46801 7.52569,-31.62156 2.09729,-2.33913 0.87605,-4.7424 -5.58785,-10.99633 -7.47412,-7.23135 -15.0481,-11.13356 -24.85464,-12.80544 -4.2521,-0.72491 -10.54634,-2.63014 -13.98722,-4.23383 -10.9229,-5.09084 -15.68556,-12.44715 -18.0876,-27.93773 -0.64326,-4.14836 -1.75972,-8.65818 -2.481,-10.02182 -1.43551,-2.71394 -9.62904,-8.39114 -16.21866,-11.23774 -7.2412,-3.12805 -21.47667,-6.39263 -32.7491,-7.51026 -12.93206,-1.28217 -37.024353,0.57538 -49.027043,3.78008 -11.218459,2.9953 -13.860123,3.34874 -13.36503,1.78817 0.942401,-2.97057 17.489112,-9.13742 32.759572,-12.2093 8.812871,-1.77283 12.305861,-1.97179 27.944851,-1.59179 18.64517,0.45304 24.21007,1.31278 39.12745,6.04496 20.96226,6.64974 29.46626,13.41767 50.57516,40.25033 14.23159,18.0906 27.34417,28.92307 35.01101,28.92307 3.86405,0 13.71653,-6.35255 21.03182,-13.56062 3.75319,-3.69816 12.16673,-13.49414 18.69677,-21.76884 14.37462,-18.21514 23.54882,-25.75934 37.94,-31.19908 16.98729,-6.42104 26.08476,-8.14096 45.908,-8.67909 15.87509,-0.43094 19.061,-0.25098 28.50025,1.60992 10.13747,1.99855 29.28294,8.2792 32.03369,10.50862 0.71341,0.5782 1.2971,1.4794 1.2971,2.00266 0,1.11722 -3.37212,0.59059 -13.49524,-2.1076 -3.96854,-1.05777 -14.17644,-2.59675 -22.68425,-3.41998 -12.72004,-1.23083 -17.36055,-1.30459 -26.11527,-0.4152 -17.79827,1.80813 -31.79316,5.91119 -41.88189,12.27903 -7.32069,4.6207 -8.57292,6.50781 -9.76495,14.71567 -1.54008,10.60456 -4.58866,18.94712 -8.44825,23.11911 -4.47485,4.83706 -14.00948,9.22151 -23.61448,10.85902 -4.21259,0.71819 -10.07959,2.46315 -13.03779,3.87769 -5.57563,2.66613 -18.72212,14.31503 -18.72212,16.58937 0,0.71126 1.27185,3.59753 2.82632,6.41394 3.42281,6.2015 5.83255,17.93027 5.96795,29.04753 l 0.0993,8.15112 1.80515,-7.28504 c 0.99285,-4.00678 3.131,-9.84996 4.75147,-12.98484 3.44552,-6.66557 4.71689,-13.45095 2.91709,-15.56874 -1.70304,-2.00395 -2.51227,-1.81549 -5.93987,1.38334 -1.65704,1.54644 -3.44677,2.54978 -3.97718,2.22965 -0.56585,-0.34153 -0.73677,-2.73572 -0.41361,-5.79352 0.90638,-8.57615 7.54315,-16.46481 17.13314,-20.36493 4.983,-2.02653 6.58994,-0.67781 3.71573,3.11866 -1.75702,2.32079 -2.0281,3.33831 -1.22368,4.59317 2.78208,4.33985 9.57975,1.33792 15.9803,-7.05711 4.07314,-5.34236 4.18839,-5.41433 4.49415,-2.80641 0.54647,4.66094 -4.06678,12.03944 -12.44156,19.89924 -6.42024,6.02546 -7.73706,7.75032 -7.49188,9.81337 0.45722,3.84753 3.33341,3.7032 7.61771,-0.38227 3.25583,-3.10472 3.80798,-3.33971 4.38671,-1.8669 0.40381,1.02766 -0.33715,3.6745 -1.89955,6.78549 -1.40888,2.80534 -2.56161,5.33957 -2.56161,5.63163 0,0.29206 2.01759,-1.20331 4.48352,-3.32304 4.36042,-3.74824 7.36969,-4.78978 8.53208,-2.95307 0.31362,0.49555 -1.59662,3.23761 -4.24497,6.09347 -2.64835,2.85586 -5.55837,6.58988 -6.46672,8.29782 -2.17937,4.09782 -6.12447,19.18014 -6.14898,23.50784 -0.0507,8.954 3.25302,14.03408 9.12675,14.03408 2.83587,0 3.78757,-0.53976 5.40645,-3.06627 1.68908,-2.63608 1.90316,-4.19136 1.52591,-11.08575 -0.24134,-4.4107 -0.74779,-9.18701 -1.12544,-10.614 -0.58473,-2.20947 -0.39045,-2.59454 1.30904,-2.59454 5.426,0 10.37793,12.94827 9.54304,24.95306 -0.86764,12.47581 -4.41399,20.07074 -18.74572,40.14621 -8.36511,11.71761 -17.3072,27.57235 -20.07155,35.58775 -1.24539,3.611 -2.76525,6.3966 -3.49022,6.3966 -2.98361,0 -3.09606,-8.751 -0.29703,-23.11503 l 0.64346,-3.30214 -2.79077,2.46991 c -1.53492,1.35849 -5.21578,3.96004 -8.17967,5.78107 -3.3774,2.07529 -5.77263,4.32289 -6.41693,6.02139 -0.56541,1.4905 -1.63457,4.4083 -2.37591,6.4839 -0.90337,2.5293 -2.00115,3.8667 -3.32871,4.0553 -2.61555,0.3715 -3.67149,-1.0709 -5.6057,-7.6576 -1.43245,-4.8781 -2.1031,-5.771 -6.02283,-8.0195 -2.42599,-1.39164 -6.16558,-4.01616 -8.31019,-5.83233 l -3.89932,-3.30214 0.62363,3.30214 c 1.13522,6.01113 1.86751,18.63353 1.22588,21.13003 -0.99044,3.8537 -3.14059,2.9335 -4.38039,-1.8749 z m 30.72342,-21.44369 c 4.51447,-6.76668 4.77528,-8.13586 2.0145,-10.57579 -4.29099,-3.79228 -5.94874,-7.78022 -5.99125,-14.41281 -0.026,-4.04978 0.51873,-7.43457 1.49226,-9.27305 2.10616,-3.97741 7.6253,-8.52127 11.3103,-9.31165 4.38978,-0.94157 11.02766,0.25442 13.97413,2.51779 3.32949,2.55759 3.78661,1.88202 1.76275,-2.60509 -2.13434,-4.73201 -2.13349,-18.02013 0.002,-27.53218 0.8478,-3.77681 3.30867,-10.31491 5.46856,-14.52913 2.1599,-4.21421 3.75491,-7.83036 3.54445,-8.03589 -0.21045,-0.20551 -3.04167,2.50345 -6.29159,6.01992 -9.00003,9.73822 -11.33192,18.40176 -8.26973,30.72387 0.49946,2.00979 0.29721,2.59454 -0.89738,2.59454 -2.33397,0 -5.34927,-6.69836 -6.24764,-13.8789 -0.68341,-5.46238 -0.90462,-5.98886 -1.50224,-3.57525 -1.89887,7.66901 -5.78316,18.45696 -7.00095,19.44397 -2.31179,1.87364 -2.6535,0.1829 -1.33854,-6.6228 1.65291,-8.55477 0.8021,-34.10436 -1.4009,-42.06867 -1.72417,-6.23327 -4.14012,-9.35546 -6.5426,-8.45514 -5.79169,2.17038 -9.39701,36.60502 -5.43955,51.95321 1.48846,5.77266 -0.15596,7.58319 -2.89401,3.18636 -1.72972,-2.77765 -5.77366,-15.47159 -6.02621,-18.91638 -0.0545,-0.74302 -0.67711,2.01184 -1.38363,6.12192 -1.23544,7.18702 -3.47755,11.75318 -6.2075,12.64184 -1.02986,0.33524 -1.12342,-0.4204 -0.45988,-3.71439 2.60576,-12.93586 -1.64507,-24.32138 -12.27523,-32.8783 l -3.4504,-2.77746 4.24303,8.21251 c 6.83814,13.23541 9.41724,31.91298 5.74274,41.58839 -0.86232,2.27059 -1.56785,4.27531 -1.56785,4.45492 0,0.17961 2.02112,-0.72289 4.49139,-2.00555 12.7712,-6.63146 25.45785,1.62182 25.45785,16.56166 0,6.44805 -0.75436,8.29137 -5.52482,13.5003 -1.85842,2.02922 -3.08015,4.21283 -2.78186,4.97198 0.97377,2.4781 8.36599,12.63772 9.19531,12.63772 0.44916,0 2.6067,-2.68307 4.79456,-5.96247 z m -22.84295,-12.88122 c 3.18169,-2.44407 5.56644,-7.48594 5.56644,-11.76861 0,-5.89503 -5.66129,-9.7218 -10.57958,-7.1513 -2.84557,1.48721 -3.226,5.26705 -1.02024,10.13666 2.45109,5.41125 1.33456,7.2564 -2.64767,4.37549 -3.95923,-2.86428 -7.00692,-7.76145 -7.00692,-11.25903 0,-2.49339 -0.42367,-3.15575 -2.17375,-3.39848 -1.95851,-0.27163 -2.17375,-0.82425 -2.17375,-5.58102 0,-5.36164 -1.44948,-8.40075 -4.00665,-8.40075 -0.74512,0 -1.77253,1.07301 -2.28311,2.38449 -1.34745,3.46099 0.68994,8.39108 7.48601,18.11465 3.18162,4.55215 6.50763,9.65645 7.39114,11.3429 1.39071,2.65458 2.10441,3.06626 5.31573,3.06626 2.22941,0 4.67606,-0.74259 6.13235,-1.86126 z m 47.6732,-1.205 c 0.86886,-1.68645 4.39772,-7.19353 7.84189,-12.23794 6.55214,-9.59641 8.48562,-15.36498 6.09341,-18.17986 -1.53314,-1.80402 -2.39106,-1.79234 -4.28616,0.0584 -1.03872,1.01438 -1.51818,3.24904 -1.51818,7.07601 0,4.83304 -0.24537,5.59341 -1.80501,5.59341 -1.3872,0 -1.9299,0.90925 -2.34451,3.92806 -0.58807,4.28152 -2.73964,7.64068 -6.78154,10.58766 -2.0305,1.48046 -2.85507,1.64614 -3.76591,0.75664 -0.91084,-0.88949 -0.8045,-1.73679 0.48568,-3.8697 2.39537,-3.95998 2.16317,-9.05899 -0.49532,-10.87743 -3.02595,-2.06978 -5.29926,-1.83028 -8.04088,0.84709 -6.34567,6.19695 -1.6e-4,19.38397 9.32743,19.38397 3.21677,0 3.91913,-0.40717 5.2891,-3.06627 z m -66.2595,-140.51831 c 0,-2.80701 -4.38249,-7.25388 -7.70141,-7.81454 -8.64625,-1.46056 -11.6208,-4.55764 -11.6208,-12.09945 0,-4.29848 -2.65882,-8.1081 -4.76967,-6.83409 -1.89243,1.14217 -1.13896,10.14046 1.27261,15.19803 2.27804,4.77756 9.27774,10.92688 13.64122,11.98401 3.88655,0.94158 9.17805,0.69138 9.17805,-0.43396 z m 83.42828,-0.17622 c 8.01884,-3.27198 15.10177,-13.06948 15.0907,-20.87432 -0.008,-5.14856 -1.06306,-6.64052 -3.71734,-5.25329 -1.1303,0.59074 -2.09355,1.37756 -2.14057,1.74848 -0.047,0.37092 -0.15762,2.93983 -0.24576,5.70869 -0.13825,4.34357 -0.57271,5.39418 -3.16666,7.65756 -1.87916,1.63966 -4.63792,2.86221 -7.35757,3.26048 -3.53881,0.51824 -4.81697,1.27658 -6.8464,4.06203 -1.37241,1.88365 -2.27276,3.77643 -2.00079,4.20618 0.7725,1.22063 6.8712,0.91769 10.38439,-0.51581 z m -116.00129,39.58481 c -19.92944,-6.38512 -34.51407,-17.6171 -44.6289,-34.36985 -3.3556,-5.55773 -5.27649,-11.07789 -4.52252,-12.99663 0.49447,-1.25838 1.00744,-1.1899 3.825,0.51065 4.19487,2.5318 6.65137,2.47992 9.85132,-0.20806 2.06635,-1.73574 2.57442,-2.96893 2.52961,-6.13986 -0.0823,-5.82732 -3.06638,-9.25486 -11.43702,-13.1369 -5.76564,-2.67391 -8.59814,-3.38175 -15.12345,-3.7793 -9.2391,-0.5629 -20.84134,1.37402 -30.000102,5.00834 -3.179323,1.2616 -6.656459,2.29382 -7.726986,2.29382 -5.765348,0 15.706798,-14.18264 26.915338,-17.77794 14.41413,-4.62354 31.06222,-3.22014 41.73833,3.51845 7.64608,4.82608 16.28687,14.33622 20.20553,22.23844 3.6732,7.40724 3.2105,9.54798 -1.479,6.84274 -4.20714,-2.42697 -9.53882,-2.14188 -10.80779,0.57793 -1.64611,3.52814 1.30713,11.4624 7.08581,19.03695 6.26224,8.20839 18.06696,19.65582 25.25427,24.4899 5.55145,3.73381 6.62194,5.52643 3.90762,6.54359 -2.75679,1.03308 -5.58772,0.55138 -15.58706,-2.65227 z m 122.66276,2.63659 c -2.02063,-0.85729 -1.35614,-3.05031 1.44917,-4.78268 10.29906,-6.36003 27.1064,-23.52591 32.08606,-32.77055 3.0687,-5.69696 3.83525,-11.54955 1.77609,-13.56045 -1.60199,-1.56445 -6.77718,-1.41962 -9.0417,0.25304 -2.31052,1.70663 -5.26412,1.85662 -5.23551,0.26587 0.0452,-2.5143 4.18228,-9.94714 8.97428,-16.12369 6.34742,-8.18138 15.55482,-15.01315 23.29284,-17.28297 8.26589,-2.42465 22.11088,-2.22768 31.01876,0.44132 11.20464,3.35714 31.31274,15.58769 29.1586,17.7354 -0.42015,0.41891 -4.76765,-0.57619 -9.66111,-2.21132 -17.29104,-5.77774 -28.46354,-6.5065 -39.81112,-2.59679 -7.80726,2.68991 -10.73709,4.59284 -13.76864,8.94271 -3.01816,4.33067 -2.80738,8.02716 0.65027,11.40378 3.32719,3.24921 5.9257,3.46179 10.26947,0.84012 3.89218,-2.34914 4.87647,-1.26881 3.26833,3.58722 -1.99534,6.02532 -4.82261,10.82224 -10.4505,17.731 -7.76293,9.52972 -14.76814,15.06601 -26.19963,20.70591 -10.18577,5.02528 -24.44445,8.83543 -27.77566,7.42208 z m -55.81652,-45.8096 c -1.12214,-7.96768 -6.84976,-24.31746 -10.7838,-30.78288 -1.99091,-3.27195 -8.36233,-11.12632 -14.15872,-17.45415 -14.63583,-15.97772 -19.48943,-22.97004 -22.50877,-32.42718 -1.99803,-6.25817 -2.4203,-9.21895 -2.12615,-14.90745 0.40669,-7.86499 0.093,-8.19648 -5.3636,-5.66783 -4.58531,2.12486 -6.38327,5.80951 -6.38327,13.08146 0,7.00242 2.36258,14.06049 8.669,25.89814 4.9921,9.37057 8.79948,13.90211 10.99061,13.081 2.58569,-0.96897 3.009,-3.47151 1.15567,-6.83228 -1.63792,-2.97015 -1.4293,-5.14619 0.49337,-5.14619 1.74398,0 8.45807,6.68019 10.21602,10.16444 1.26969,2.51655 1.92789,6.59965 2.31577,14.36571 0.48278,9.66605 0.85348,11.41568 3.39751,16.03542 1.57059,2.85206 6.22492,8.62881 10.34296,12.83724 4.11804,4.20845 7.48736,8.13721 7.48736,8.73062 0,4.78088 -14.88017,-5.14434 -28.63379,-19.09902 -11.54211,-11.71083 -17.03755,-20.32818 -21.54174,-33.77941 -1.1625,-3.47173 -3.79149,-8.84732 -5.84219,-11.94579 -7.32578,-11.06877 -19.83248,-14.64733 -23.82933,-6.81833 -2.07383,4.0622 1.89834,10.3027 8.19848,12.88021 3.4558,1.41385 3.69561,3.52032 0.45416,3.98952 -2.26832,0.32834 -15.31559,-4.77455 -27.63107,-10.80674 -24.70856,-12.1024 -54.776273,-19.18587 -81.471119,-19.1933 -14.019831,-0.004 -36.591117,1.98298 -47.705361,4.19937 -6.6683714,1.32979 -7.7288801,1.20035 -7.7288801,-0.94333 0,-3.52191 16.8451701,-10.28537 32.5865131,-13.08373 19.833996,-3.52591 56.177392,-3.38848 71.960387,0.27212 4.60379,1.06778 14.59213,4.18444 22.19631,6.92592 12.14882,4.37993 14.70466,4.98374 21.07161,4.97813 8.8709,-0.008 12.66292,-1.90327 15.57985,-7.78762 3.72986,-7.52432 0.51473,-14.39201 -8.88511,-18.97909 -6.86319,-3.34919 -11.29543,-3.72259 -14.46223,-1.21838 -3.11053,2.45973 -1.92397,6.04669 3.19911,9.67086 2.24693,1.58952 4.08533,3.39 4.08533,4.00105 0,1.63906 -6.78332,1.92358 -14.49165,0.60786 -8.20614,-1.4007 -25.04102,-6.9978 -28.69927,-9.54165 -3.83244,-2.66497 -13.513734,-6.79438 -22.987612,-9.805 -7.295511,-2.31838 -9.667428,-2.61205 -21.25442,-2.6315 -14.525028,-0.0243 -26.873247,1.70247 -39.61875,5.54059 -15.540806,4.67988 -18.7010675,3.98484 -9.113692,-2.00439 11.358082,-7.0954 24.960389,-11.86479 40.223168,-14.1035 20.92518,-3.06926 36.281826,-0.96992 52.526716,7.18068 5.08627,2.55195 10.21863,4.63991 11.40524,4.63991 7.76798,0 4.89209,-11.57436 -3.18945,-12.83637 -5.5564,-0.86768 -6.71586,-1.82667 -4.64922,-3.8454 2.36135,-2.3066 12.85791,-2.72854 21.84609,-0.87816 8.03304,1.65374 20.68244,7.30297 27.18089,12.13902 7.10178,5.28503 8.18431,5.65547 10.70397,3.66299 2.05151,-1.62227 2.11377,-1.99029 0.99519,-5.88298 l -1.19322,-4.15245 -6.46061,-0.11936 c -10.65846,-0.19692 -24.59158,-5.67601 -46.62812,-18.33617 -12.43001,-7.14113 -17.11637,-9.29923 -34.706001,-15.98229 -13.703884,-5.20668 -20.991252,-6.8717 -28.162078,-6.43444 -5.598916,0.3414 -7.507505,-1.41322 -3.254776,-2.99222 4.386671,-1.62871 18.111451,-2.21427 24.888085,-1.06184 7.908055,1.34486 23.59949,7.48694 41.50226,16.24522 22.36328,10.94043 33.01888,15.06136 40.5358,15.67679 3.65922,0.29958 6.60894,0.16421 6.60758,-0.30327 -0.005,-1.50117 -6.85417,-12.00373 -11.75411,-18.02233 -6.59773,-8.10394 -10.77688,-11.07054 -22.92363,-16.2725 -5.77804,-2.4745 -12.02738,-5.63267 -13.88746,-7.01817 -4.0074,-2.98495 -8.43282,-8.93972 -8.43282,-11.34705 0,-1.82115 0.68517,-1.76552 6.54582,0.53158 3.84979,1.50894 6.49667,0.27744 6.49667,-3.02262 0,-3.05782 -5.06472,-6.25558 -20.18702,-12.74567 -26.138937,-11.21814 -47.688541,-16.90296 -61.792482,-16.30097 -5.314233,0.22682 -7.808342,-0.0163 -8.078447,-0.78733 -1.691456,-4.82862 30.863331,-6.29897 57.210212,-2.58392 12.859997,1.81331 34.256507,7.30716 41.691437,10.70484 14.06254,6.42643 25.4138,16.29558 30.77124,26.75352 5.29728,10.34045 4.17783,14.26856 -2.23051,7.8268 -3.4253,-3.44317 -8.53223,-6.20574 -11.47202,-6.20574 -4.52506,0 -7.27577,4.41943 -5.52456,8.87604 0.65686,1.67163 8.61982,7.90537 20.38412,15.95753 9.39241,6.4287 13.38161,10.75238 18.22453,19.75247 3.04761,5.66368 3.76323,6.44582 4.72383,5.16292 0.62265,-0.83158 4.49955,-2.8183 8.61531,-4.41494 4.11578,-1.59664 9.6167,-3.95875 12.22427,-5.24915 2.60757,-1.29039 5.62498,-2.34616 6.70537,-2.34616 2.36187,0 2.51763,-2.13387 0.65421,-8.96295 -1.68432,-6.17261 -4.05756,-10.55929 -6.36524,-11.76538 -3.07062,-1.60482 -7.61865,-1.13134 -9.8245,1.02281 -1.73763,1.6969 -1.94874,2.68161 -1.41589,6.60428 0.79421,5.8467 -0.44936,6.00023 -6.49648,0.8021 -7.98888,-6.86729 -11.67489,-18.5222 -8.45537,-26.73533 0.58448,-1.49102 0.78749,-4.25066 0.45116,-6.13255 -1.00213,-5.60687 -8.69204,-20.625 -12.13196,-23.69324 -2.36509,-2.10955 -2.88693,-3.09388 -2.06548,-3.89608 3.25732,-3.18098 12.2688,4.37814 18.35163,15.39394 8.17292,14.8009 13.93869,20.56715 20.56542,20.56715 5.39773,0 10.27294,-7.93454 12.75326,-20.75629 0.97704,-5.05073 0.51231,-23.31491 -0.81342,-31.96768 -0.50606,-3.30296 -0.36144,-4.05227 0.7185,-3.72249 3.57206,1.09081 7.31825,13.14563 8.58854,27.63701 1.01945,11.62967 0.0205,18.46459 -4.50138,30.79718 -2.18987,5.97251 -2.54944,8.44225 -2.50137,17.18039 0.0309,5.61285 0.29912,10.44246 0.5961,10.73248 0.29698,0.29002 1.75339,-0.87999 3.23647,-2.60003 12.015,-13.93465 17.52871,-27.12176 19.63317,-46.95662 0.82949,-7.81812 1.95569,-10.53492 4.36705,-10.53492 2.63251,0 4.15521,2.94653 4.74929,9.19019 1.66512,17.49995 6.76706,31.50293 15.72468,43.15855 3.39553,4.41825 6.57944,8.0332 7.07534,8.0332 0.5036,0 0.90164,-4.59203 0.90164,-10.40171 0,-8.08686 -0.43957,-11.60378 -1.97518,-15.80309 -7.16484,-19.59316 -7.46915,-34.24375 -1.09183,-52.56559 1.86875,-5.36884 3.14039,-7.63571 4.4182,-7.87602 1.55167,-0.29182 1.71088,0.0896 1.17771,2.82124 -1.34764,6.90455 -1.79597,29.62549 -0.68717,34.82617 1.44939,6.79826 6.16018,16.49247 8.64552,17.79142 7.20559,3.76593 13.876,-1.59086 24.14585,-19.39074 5.1627,-8.94808 10.85209,-14.95401 15.16794,-16.01182 4.2814,-1.04938 4.63831,0.88237 0.86418,4.67738 -1.91472,1.92532 -5.26057,7.20135 -7.43524,11.72451 -4.22228,8.78208 -4.5736,11.43437 -3.1239,23.58384 0.65257,5.469 0.47105,6.3933 -2.35766,12.00454 -1.93162,3.83174 -4.60166,7.30926 -7.22202,9.40613 -5.62814,4.50375 -6.75207,4.36244 -5.96698,-0.75021 0.87114,-5.67299 -1.8522,-9.13153 -7.19039,-9.13153 -3.09478,0 -4.15697,0.53248 -6.11658,3.06626 -2.67792,3.46257 -5.45579,11.79128 -5.45579,16.35775 0,2.58077 0.29406,2.96748 1.93738,2.54781 1.06555,-0.27212 2.47848,-0.0626 3.13985,0.46559 0.66137,0.52819 5.98473,2.93747 11.8297,5.35396 5.84496,2.41649 11.16615,5.08152 11.82486,5.92228 1.43549,1.83221 1.12276,2.15556 5.16106,-5.33639 4.0531,-7.51942 10.49564,-14.49122 17.9141,-19.38573 9.50109,-6.26859 19.12652,-13.77465 20.54934,-16.0247 1.81295,-2.86701 0.66755,-6.90764 -2.33712,-8.24458 -3.48732,-1.55169 -8.92838,0.33495 -14.31168,4.96248 -5.39846,4.64054 -6.79908,4.24599 -5.05198,-1.42313 3.14659,-10.21031 11.2203,-19.5942 23.49195,-27.30416 9.38068,-5.89363 14.30758,-7.77134 31.14428,-11.86946 20.06852,-4.88476 30.07472,-6.06252 50.73503,-5.97164 18.41161,0.081 27.05107,1.37429 27.05107,4.04947 0,1.16573 -1.3624,1.36081 -7.72887,1.10663 -4.25089,-0.16971 -10.67397,0.15851 -14.27352,0.72936 -17.68947,2.80538 -61.14436,19.3117 -66.71583,25.34195 -0.97258,1.05268 -1.6247,2.90422 -1.44917,4.11456 0.40147,2.76805 4.71565,3.47618 8.0765,1.32568 4.50381,-2.88185 6.58616,-1.419 4.04328,2.84041 -4.06683,6.81211 -9.02764,10.36731 -22.42782,16.07304 -11.65964,4.96462 -16.76937,8.89297 -24.31057,18.68987 -4.00042,5.19702 -9.02023,13.69364 -9.02023,15.26781 0,0.35197 2.93457,0.38738 6.52125,0.0786 7.3573,-0.63319 19.47245,-5.35858 42.26731,-16.48598 7.43905,-3.6314 18.74253,-8.65896 25.11886,-11.17236 l 11.59332,-4.5698 12.07638,-0.008 c 8.82957,-0.006 12.85561,0.37394 14.9747,1.41094 4.12932,2.02076 2.76386,3.33164 -3.09064,2.96714 -7.10569,-0.44242 -14.4848,1.26514 -27.82488,6.43882 -17.53909,6.80215 -21.35475,8.59523 -37.38623,17.56857 -20.56213,11.50931 -39.00815,18.27069 -46.57403,17.07169 -3.16537,-0.50163 -3.43546,-0.33575 -4.47857,2.75084 -0.61054,1.80657 -0.84307,4.32354 -0.51674,5.59324 0.91164,3.54713 4.62641,2.93397 11.5794,-1.91131 12.37596,-8.62431 26.88653,-13.65274 39.50433,-13.68963 5.36701,-0.0157 11.30381,1.91746 11.30381,3.68077 0,1.05126 -2.44512,1.96365 -5.26233,1.96365 -2.81354,0 -7.17093,3.32694 -8.36102,6.38379 -1.24101,3.1876 1.16418,6.82477 4.51309,6.82477 1.34118,0 5.71155,-1.75427 9.71195,-3.89835 15.89034,-8.51673 32.05689,-10.93532 53.35712,-7.98246 12.93731,1.79351 22.59961,4.78821 33.99772,10.53713 10.59176,5.34223 12.00723,6.37409 11.28056,8.22341 -0.51325,1.30616 -1.62548,1.14657 -8.93847,-1.28246 -9.85672,-3.27396 -26.11197,-6.27906 -38.46972,-7.11186 -15.91699,-1.07269 -30.51269,2.49726 -48.44751,11.84972 -9.29378,4.84641 -20.58132,8.76436 -29.88532,10.37329 -11.62831,2.01088 -18.13447,0.6739 -13.21128,-2.71482 7.4852,-5.15225 9.11246,-8.2535 5.95078,-11.34108 -2.40212,-2.34581 -6.32104,-2.47058 -11.86471,-0.3777 -11.65535,4.40018 -16.14177,12.62937 -11.50361,21.10045 2.44078,4.45783 6.77792,6.72192 13.95417,7.28447 4.89334,0.38359 7.34325,0.002 13.2397,-2.06489 32.79521,-11.49293 39.76596,-12.89605 64.24104,-12.93095 17.90344,-0.0255 24.98368,0.45434 38.63914,2.61873 18.57942,2.94482 36.53087,10.96838 32.63789,14.58777 -0.41594,0.38672 -3.9904,0.0976 -7.94326,-0.64236 -12.7198,-2.38126 -32.72289,-4.15017 -46.93052,-4.15017 -24.87147,0 -53.0943,6.24029 -77.04278,17.03477 -25.82785,11.64159 -29.81646,13.27039 -31.7989,12.98546 -3.49759,-0.50269 -3.06978,-2.45137 0.98124,-4.46962 9.2184,-4.59265 10.7473,-13.48037 2.7617,-16.05409 -8.80273,-2.83708 -19.04941,6.02439 -24.82123,21.46575 -5.70857,15.27214 -9.46178,21.57868 -18.54173,31.15577 -11.14307,11.7532 -15.22576,15.39186 -22.42272,19.98416 -5.82932,3.7196 -9.27972,4.72564 -9.27972,2.7057 0,-0.57621 3.28641,-4.45925 7.30314,-8.62899 4.01672,-4.16974 8.65984,-10.17284 10.31802,-13.34022 2.69284,-5.14372 3.07583,-6.91791 3.58525,-16.60877 0.41121,-7.82258 1.05648,-11.72989 2.31264,-14.00383 0.95825,-1.73467 1.56005,-3.3319 1.33732,-3.54941 -0.77388,-0.75574 -16.16832,17.37154 -20.04566,23.60417 -4.28892,6.89426 -9.183,20.12695 -11.00032,29.74283 -0.80988,4.28524 -1.64118,6.27472 -2.70554,6.47489 -1.18242,0.22237 -1.69828,-0.86014 -2.23879,-4.69799 z m 12.16535,-44.17495 c 27.96831,-25.39644 28.29029,-25.89037 28.75132,-44.10711 0.2338,-9.23801 0.0149,-12.50095 -0.83824,-12.50095 -2.25846,0 -8.45886,7.15739 -9.69728,11.194 -1.01313,3.30224 -1.01712,4.63454 -0.0211,7.05268 2.48116,6.0239 2.46211,6.28348 -0.46112,6.28348 -4.31949,0 -12.43796,-8.77786 -14.48811,-15.66485 -2.16017,-7.25656 -1.45438,-16.08884 1.86486,-23.3368 2.78473,-6.0808 4.81219,-6.66036 5.22933,-1.4948 0.50405,6.24168 1.18194,7.56874 4.57311,8.95246 3.8189,1.55824 6.16956,1.68848 8.17017,0.45271 1.22077,-0.75407 1.19519,-1.10402 -0.18988,-2.59865 -3.47811,-3.75319 -10.36137,-22.13547 -10.38745,-27.7405 -0.01,-2.04345 -0.38227,-2.39479 -2.18521,-2.05967 -1.66562,0.30958 -3.57753,-0.98914 -8.17897,-5.55577 -3.30287,-3.2779 -7.32702,-7.76419 -8.94257,-9.96956 -1.61555,-2.20536 -3.07975,-4.00974 -3.25377,-4.00974 -0.17404,0 -1.9721,2.34763 -3.9957,5.21698 -4.79804,6.80318 -13.54903,14.59586 -16.39087,14.59586 -1.98267,0 -2.25425,0.54941 -2.71284,5.48839 -0.52732,5.67894 -6.19169,20.00879 -9.56427,24.19584 -1.79156,2.22423 -1.78846,2.2663 0.21328,2.88674 3.37168,1.04505 8.41009,-0.39896 10.51649,-3.01406 1.31457,-1.63203 1.97408,-3.84982 1.97408,-6.63837 0,-6.08494 2.60133,-5.12897 5.67416,2.0852 3.48831,8.18963 3.37094,19.05154 -0.2847,26.34829 -2.93156,5.85147 -9.42113,11.8603 -12.80919,11.8603 -2.63328,0 -2.65695,-0.17117 -0.75933,-5.49175 1.10108,-3.08724 1.22007,-4.91894 0.49033,-7.54774 -0.96275,-3.46818 -7.98157,-11.49029 -10.05396,-11.4911 -0.7667,-3.1e-4 -1.05265,3.51293 -0.95081,11.68145 0.12007,9.63242 0.50392,12.4729 2.18791,16.19061 3.2154,7.09858 8.53855,13.20399 18.21333,20.88983 4.92446,3.91209 10.96412,9.41113 13.42148,12.22007 2.45736,2.80897 4.591,4.99071 4.74141,4.84834 0.15041,-0.14237 4.71525,-4.29219 10.14408,-9.22181 z m -11.18461,3.05183 c -0.53634,-0.38124 -2.12965,-2.43385 -3.54071,-4.56137 -1.41106,-2.1275 -5.10236,-5.92542 -8.20289,-8.4398 -8.74626,-7.09278 -13.84928,-12.02494 -13.84928,-13.38557 0,-0.68327 2.551,-3.67993 5.66889,-6.65929 5.50871,-5.26394 9.56644,-11.77104 13.65141,-21.89179 1.3325,-3.30136 2.36844,-9.99987 3.46509,-22.40568 1.51451,-17.13283 2.31046,-20.99856 4.3236,-20.99856 1.75517,0 2.55772,4.13061 3.75786,19.34108 0.65508,8.30252 1.60736,17.00601 2.11618,19.34109 1.72921,7.93563 8.23146,19.43765 14.87812,26.31834 3.43256,3.5534 6.24102,6.8956 6.24102,7.42709 0,0.5315 -4.3949,4.68279 -9.76646,9.22512 -5.37155,4.54231 -11.28145,10.3181 -13.13312,12.83507 -3.46431,4.70907 -3.94373,5.03847 -5.60971,3.85427 z m 49.28835,-10.2251 c 2.88242,-3.03731 11.5608,-19.39378 14.07243,-26.52288 2.1148,-6.0027 2.41432,-14.71244 0.62473,-18.16625 -1.56527,-3.02088 -7.08445,-6.63259 -10.13548,-6.63259 -2.03002,0 -2.20674,0.21645 -1.17136,1.43477 0.86788,1.02121 1.06634,3.67268 0.68854,9.19881 -0.71507,10.45922 -4.17309,19.06533 -11.36161,28.27605 l -5.70001,7.30348 3.86975,-2.50086 c 4.78231,-3.09061 6.69526,-2.05338 4.35697,2.36241 -1.83283,3.46125 -1.92313,5.05609 -0.37205,6.57084 1.6802,1.64081 2.52052,1.42389 5.12809,-1.32378 z m -94.20342,-65.63888 c 0,-0.54849 1.46536,-2.96467 3.25638,-5.36926 3.90241,-5.23938 6.75084,-10.50455 5.68291,-10.50455 -0.42429,0 -4.18771,1.28466 -8.36316,2.8548 -4.17546,1.57014 -8.4016,2.60378 -9.39146,2.29697 -2.1342,-0.66149 -1.67963,1.18641 1.40171,5.6981 4.22822,6.19096 7.41362,8.34957 7.41362,5.02394 z m 98.01919,-2.4294 c 1.84757,-2.46481 3.78089,-5.63598 4.2963,-7.04704 0.83142,-2.27628 0.75328,-2.4545 -0.69301,-1.58046 -1.23066,0.74374 -3.59932,0.27425 -9.66641,-1.91589 -4.41998,-1.59556 -8.22404,-2.90102 -8.45347,-2.90102 -1.10084,0 -0.0301,2.07778 4.40077,8.54029 2.64985,3.86481 4.8236,7.55762 4.83055,8.20626 0.0249,2.32657 1.98326,1.10304 5.28527,-3.30214 z"
       style="fill:#000000" />
  </g>
</svg>
