<?xml version="1.0" encoding="UTF-8" standalone="no"?>
<!-- Created with Inkscape (http://www.inkscape.org/) -->
<svg xmlns:dc="http://purl.org/dc/elements/1.1/" xmlns:cc="http://creativecommons.org/ns#" xmlns:rdf="http://www.w3.org/1999/02/22-rdf-syntax-ns#" xmlns:svg="http://www.w3.org/2000/svg" xmlns="http://www.w3.org/2000/svg" xmlns:sodipodi="http://sodipodi.sourceforge.net/DTD/sodipodi-0.dtd" xmlns:inkscape="http://www.inkscape.org/namespaces/inkscape" width="163.59732" height="273.37714" id="svg3065" version="1.1" inkscape:version="0.47 r22583" sodipodi:docname="runner2.svg">
  <defs id="defs3067">
    <inkscape:perspective sodipodi:type="inkscape:persp3d" inkscape:vp_x="0 : 526.18109 : 1" inkscape:vp_y="0 : 1000 : 0" inkscape:vp_z="744.09448 : 526.18109 : 1" inkscape:persp3d-origin="372.04724 : 350.78739 : 1" id="perspective3073"/>
    <inkscape:perspective id="perspective2848" inkscape:persp3d-origin="0.5 : 0.33333333 : 1" inkscape:vp_z="1 : 0.5 : 1" inkscape:vp_y="0 : 1000 : 0" inkscape:vp_x="0 : 0.5 : 1" sodipodi:type="inkscape:persp3d"/>
    <inkscape:perspective id="perspective2861" inkscape:persp3d-origin="0.5 : 0.33333333 : 1" inkscape:vp_z="1 : 0.5 : 1" inkscape:vp_y="0 : 1000 : 0" inkscape:vp_x="0 : 0.5 : 1" sodipodi:type="inkscape:persp3d"/>
    <inkscape:perspective id="perspective2874" inkscape:persp3d-origin="0.5 : 0.33333333 : 1" inkscape:vp_z="1 : 0.5 : 1" inkscape:vp_y="0 : 1000 : 0" inkscape:vp_x="0 : 0.5 : 1" sodipodi:type="inkscape:persp3d"/>
    <inkscape:perspective id="perspective2887" inkscape:persp3d-origin="0.5 : 0.33333333 : 1" inkscape:vp_z="1 : 0.5 : 1" inkscape:vp_y="0 : 1000 : 0" inkscape:vp_x="0 : 0.5 : 1" sodipodi:type="inkscape:persp3d"/>
    <inkscape:perspective id="perspective2900" inkscape:persp3d-origin="0.5 : 0.33333333 : 1" inkscape:vp_z="1 : 0.5 : 1" inkscape:vp_y="0 : 1000 : 0" inkscape:vp_x="0 : 0.5 : 1" sodipodi:type="inkscape:persp3d"/>
    <inkscape:perspective id="perspective2913" inkscape:persp3d-origin="0.5 : 0.33333333 : 1" inkscape:vp_z="1 : 0.5 : 1" inkscape:vp_y="0 : 1000 : 0" inkscape:vp_x="0 : 0.5 : 1" sodipodi:type="inkscape:persp3d"/>
    <inkscape:perspective id="perspective2926" inkscape:persp3d-origin="0.5 : 0.33333333 : 1" inkscape:vp_z="1 : 0.5 : 1" inkscape:vp_y="0 : 1000 : 0" inkscape:vp_x="0 : 0.5 : 1" sodipodi:type="inkscape:persp3d"/>
    <inkscape:perspective id="perspective2939" inkscape:persp3d-origin="0.5 : 0.33333333 : 1" inkscape:vp_z="1 : 0.5 : 1" inkscape:vp_y="0 : 1000 : 0" inkscape:vp_x="0 : 0.5 : 1" sodipodi:type="inkscape:persp3d"/>
    <inkscape:perspective id="perspective2952" inkscape:persp3d-origin="0.5 : 0.33333333 : 1" inkscape:vp_z="1 : 0.5 : 1" inkscape:vp_y="0 : 1000 : 0" inkscape:vp_x="0 : 0.5 : 1" sodipodi:type="inkscape:persp3d"/>
    <inkscape:perspective id="perspective2965" inkscape:persp3d-origin="0.5 : 0.33333333 : 1" inkscape:vp_z="1 : 0.5 : 1" inkscape:vp_y="0 : 1000 : 0" inkscape:vp_x="0 : 0.5 : 1" sodipodi:type="inkscape:persp3d"/>
  </defs>
  <sodipodi:namedview id="base" pagecolor="#ffffff" bordercolor="#666666" borderopacity="1.0" inkscape:pageopacity="0.0" inkscape:pageshadow="2" inkscape:zoom="0.35" inkscape:cx="135.48528" inkscape:cy="74.936079" inkscape:document-units="px" inkscape:current-layer="layer1" showgrid="false" inkscape:window-width="613" inkscape:window-height="504" inkscape:window-x="0" inkscape:window-y="640" inkscape:window-maximized="0"/>
  <g inkscape:label="Layer 1" inkscape:groupmode="layer" id="layer1" transform="translate(-405.22901,-65.349695)">
    <path style="fill:#d9bb7a;stroke:none" d="m 405.43415,148.57246 13.8896,-18.6879 c 0,0 7.57614,-9.5964 8.83883,-10.354 1.26269,-0.7576 7.82869,-8.0813 7.82869,-9.0914 0,-1.0102 5.05076,-7.3236 5.05076,-7.3236 0,0 9.84899,-5.303304 10.85914,-5.303304 1.01015,0 9.09137,-3.7881 10.10152,-3.5355 1.01016,0.2525 6.566,0 6.566,0 l 4.29314,1.5152 c 0,0 -1.26269,-1.7678 -1.51523,-4.2932 -0.25253,-2.5253 -0.25253,-10.354 -0.25253,-12.1218 0,-1.7678 0.75761,-5.5558 1.76776,-6.566 1.01016,-1.0101 5.80838,-5.8084 7.32361,-6.3134 1.51523,-0.5051 7.32361,-1.5153 9.34391,-1.0102 2.02031,0.5051 8.33376,3.0305 9.34391,5.3033 1.01015,2.2729 1.01015,5.8084 1.26269,7.0711 0.25254,1.2627 1.01015,5.3033 1.26269,6.3134 0.25254,1.0102 0.50508,4.7983 0.50508,5.8084 0,1.0102 -1.76777,6.566 -1.76777,8.0812 0,1.5153 -2.52538,5.555904 -2.52538,5.555904 0,0 5.05076,1.2627 6.31345,1.7677 1.2627,0.5051 3.53554,2.778 3.78808,3.7881 0.25253,1.0102 1.76776,4.5457 1.01015,5.5558 -0.75762,1.0102 -2.02031,5.3033 -2.02031,5.3033 l 0,2.5254 1.38896,2.6517 9.09138,3.788 10.85914,4.5457 8.33376,3.283 7.3236,-0.1262 4.29315,-1.8941 5.80838,-5.4295 2.90419,-5.3033 1.89403,2.5253 -0.50507,2.3991 3.15672,-5.4295 2.02031,-1.2627 0.3788,4.0406 -2.65165,4.1669 2.39912,0.5051 4.54568,-2.3992 0.88389,3.4093 -4.54569,4.0406 -8.20749,6.0609 c 0,0 2.02031,0.3788 2.52538,0.6314 0.50508,0.2525 4.04061,0.6313 4.04061,0.6313 l -1.89403,3.4093 -9.97526,1.6415 -7.07107,-0.2526 -4.29315,-2.3991 -7.74804,-0.4605 -11.60715,-1.0714 -7.85714,-0.7143 -11.07143,-4.4643 -8.57143,20.5357 -3.03571,2.6786 -0.71429,4.1071 0,8.5715 c 0,0 2.85715,8.9285 2.67857,10.1785 -0.17857,1.25 2.32143,11.9643 2.32143,11.9643 0,0 -1.60714,9.1072 -1.60714,9.8214 0,0.7143 -7.32143,9.6429 -7.32143,9.6429 l -9.28571,9.1071 -7.5,10.8929 -1.25,2.3214 7.85714,4.4643 1.78571,1.9643 1.78572,-4.6429 c 0,0 2.85714,-2.5 3.57143,-2.3214 0.71428,0.1786 4.10714,1.25 4.82143,1.6072 0.71428,0.3571 2.5,3.5714 2.5,4.2857 0,0.7143 0.35714,3.2143 0.17857,4.1071 -0.17857,0.8929 0.35714,3.3929 0.53571,4.1072 0.17857,0.7142 3.21429,6.6071 3.92857,7.1428 0.71429,0.5357 3.03572,3.9286 3.03572,3.9286 l 0.53571,6.07142 -2.85714,6.25 -4.64286,0.3572 -4.28571,-4.6429 c 0,0 0.35714,-1.4286 -0.53572,-2.1429 -0.89285,-0.7142 -3.21428,-2.67852 -4.10714,-3.03572 -0.89286,-0.3571 -3.75,-3.0357 -3.75,-3.0357 l 0,-2.5 -2.32143,-1.4286 -5.35714,0 -2.14286,13.57152 -5,20.7143 -3.21428,14.1071 c 0,0 -1.25,7.6786 -1.60715,8.5714 -0.35714,0.8929 1.25,8.2143 1.25,9.10716 0,0.8928 1.96429,10.5357 1.96429,10.5357 l -11.78572,2.6786 -10.35714,-2.6786 -0.17857,-5.3572 4.28571,-6.78566 2.67858,-6.6071 3.21428,-12.1429 -1.07143,-24.4643 c 0,0 0.71429,-16.25002 1.25,-17.14282 0.53572,-0.8929 1.78572,-7.6786 1.78572,-7.6786 l -0.53572,-2.3214 c 0,0 -8.57143,-17.5 -8.75,-18.5714 -0.17857,-1.0715 -3.03571,-12.5 -3.03571,-12.5 l -1.78572,-16.4286 -0.17857,-8.3929 2.14286,-12.5 1.60714,-14.4643 1.42857,-15.5357 1.07143,-14.4643 0.35715,-12.8571 -6.78572,3.75 -8.57143,9.4643 -7.67857,7.6786 -0.35714,7.3214 5,-2.3214 1.96428,0.8928 -3.21428,6.0714 -1.96429,3.2143 3.57143,5.1786 -2.85714,1.4286 -3.21429,-3.2143 2.67857,4.4643 -3.39285,1.0714 -3.39286,-3.3929 -0.89286,12.5 -2.32143,-1.4285 0.17858,-10 -0.71429,-6.4286 -5.71429,-8.5714 0.20514,-6.9401 z" id="path7114"/>
  </g>
  <metadata>
    <rdf:RDF>
      <cc:Work>
        <dc:format>image/svg+xml</dc:format>
        <dc:type rdf:resource="http://purl.org/dc/dcmitype/StillImage"/>
        <cc:license rdf:resource="http://creativecommons.org/licenses/publicdomain/"/>
        <dc:publisher>
          <cc:Agent rdf:about="http://openclipart.org/">
            <dc:title>Open Clip Art Library</dc:title>
          </cc:Agent>
        </dc:publisher>
        <dc:title>runner3</dc:title>
        <dc:date>2010-08-03T23:23:17</dc:date>
        <dc:description>Part of set of Silhouettes based on sports, in a nice vibrant colours of Ubuntu palette in Inkscape.</dc:description>
        <dc:source>http://openclipart.org/detail/76987/runner3-by-shokunin</dc:source>
        <dc:creator>
          <cc:Agent>
            <dc:title>shokunin</dc:title>
          </cc:Agent>
        </dc:creator>
        <dc:subject>
          <rdf:Bag>
            <rdf:li>Olympics</rdf:li>
            <rdf:li>clip art</rdf:li>
            <rdf:li>clipart</rdf:li>
            <rdf:li>colours</rdf:li>
            <rdf:li>finish</rdf:li>
            <rdf:li>run</rdf:li>
            <rdf:li>runner</rdf:li>
            <rdf:li>running</rdf:li>
            <rdf:li>silhouette</rdf:li>
            <rdf:li>speed</rdf:li>
            <rdf:li>sports</rdf:li>
            <rdf:li>sports2010</rdf:li>
            <rdf:li>start</rdf:li>
          </rdf:Bag>
        </dc:subject>
      </cc:Work>
      <cc:License rdf:about="http://creativecommons.org/licenses/publicdomain/">
        <cc:permits rdf:resource="http://creativecommons.org/ns#Reproduction"/>
        <cc:permits rdf:resource="http://creativecommons.org/ns#Distribution"/>
        <cc:permits rdf:resource="http://creativecommons.org/ns#DerivativeWorks"/>
      </cc:License>
    </rdf:RDF>
  </metadata>
</svg>
