<?xml version="1.0" encoding="UTF-8" standalone="no"?>
<!-- Created with Inkscape (http://www.inkscape.org/) -->
<svg xmlns:dc="http://purl.org/dc/elements/1.1/" xmlns:cc="http://creativecommons.org/ns#" xmlns:rdf="http://www.w3.org/1999/02/22-rdf-syntax-ns#" xmlns:svg="http://www.w3.org/2000/svg" xmlns="http://www.w3.org/2000/svg" xmlns:sodipodi="http://sodipodi.sourceforge.net/DTD/sodipodi-0.dtd" xmlns:inkscape="http://www.inkscape.org/namespaces/inkscape" width="167.53648" height="268.37445" id="svg2" version="1.1" inkscape:version="0.47 r22583" sodipodi:docname="soccer player silhouette 2.svg">
  <defs id="defs4">
    <inkscape:perspective sodipodi:type="inkscape:persp3d" inkscape:vp_x="0 : 526.18109 : 1" inkscape:vp_y="0 : 1000 : 0" inkscape:vp_z="744.09448 : 526.18109 : 1" inkscape:persp3d-origin="372.04724 : 350.78739 : 1" id="perspective10"/>
    <inkscape:perspective id="perspective2824" inkscape:persp3d-origin="0.5 : 0.33333333 : 1" inkscape:vp_z="1 : 0.5 : 1" inkscape:vp_y="0 : 1000 : 0" inkscape:vp_x="0 : 0.5 : 1" sodipodi:type="inkscape:persp3d"/>
  </defs>
  <sodipodi:namedview id="base" pagecolor="#ffffff" bordercolor="#666666" borderopacity="1.0" inkscape:pageopacity="0.0" inkscape:pageshadow="2" inkscape:zoom="0.7" inkscape:cx="513.06466" inkscape:cy="-32.390054" inkscape:document-units="px" inkscape:current-layer="layer1" showgrid="false" inkscape:window-width="1600" inkscape:window-height="838" inkscape:window-x="-8" inkscape:window-y="-8" inkscape:window-maximized="1"/>
  <g inkscape:label="Camada 1" inkscape:groupmode="layer" id="layer1" transform="translate(-340.06836,-258.5427)">
    <g id="g3608" transform="matrix(1.1900392,0,0,1.1900392,-64.626336,-49.133261)">
      <path sodipodi:nodetypes="ccccccccccccccccccccccasssccccccccccc" id="path2830" d="m 373.92857,479.86218 c 9.10808,4.06241 18.13816,3.44014 26.59869,-1.66112 10.71801,-2.27948 1.45942,-16.50581 4.7021,-24.56807 0.36391,-5.60682 1.76804,-11.08333 2.62778,-16.62795 6.25832,5.89408 8.8583,14.79032 8.50622,23.20285 -0.82337,8.76263 -7.97683,15.62323 -10.12339,23.03746 8.76485,1.9873 16.74424,-5.8464 22.37314,-12.02068 7.29652,-2.92546 11.6905,-10.11071 3.81503,-15.5637 -7.54948,-12.25383 -8.98363,-27.09588 -14.41254,-40.27344 -6.72288,-8.65331 9.41666,-9.50736 10.00189,-17.40221 3.65277,-6.94201 10.26146,-11.17707 16.24735,-15.70522 4.48659,-7.84447 4.2417,-17.26622 6.2743,-25.86759 1.87815,-7.51058 -3.01865,-21.43464 2.82284,-25.2734 8.53313,4.0609 9.31231,14.63388 12.02768,22.66078 4.35454,10.49569 0.48082,20.18301 -1.74384,30.30551 0.16474,9.531 9.77329,-9.796 5.55331,0.91046 -7.10687,9.67502 12.52502,-1.85018 11.07467,-8.01591 -2.10416,-7.37243 -3.72541,-15.17852 -3.69753,-23.10635 0.23713,-9.46058 -2.20529,-18.20616 -8.16971,-25.62746 -5.10181,-8.63117 -15.6247,-11.93949 -21.17038,-20.41846 -6.17587,-7.95936 -12.72508,-15.88735 -21.16475,-21.55693 -0.30211,-7.35652 -2.46292,-14.92644 -6.33016,-21.12349 -5.93476,-8.44928 -17.21027,-7.23982 -22.53349,-1.90285 -6.90008,6.91788 -1.48703,20.05345 2.54181,29.20192 0.75748,1.72006 5.51982,2.60032 5.85603,4.12684 0.76446,3.47105 -2.14386,6.71564 -6.17275,9.68868 -8.33402,6.14993 -18.421,7.51915 -28.10207,11.5288 -8.19715,4.66888 -17.29811,2.46354 -25.19684,3.70586 -7.79011,0.89893 -7.27368,15.68165 0.74174,8.64897 9.07582,-1.01739 18.4466,1.02642 27.39715,-2.23771 10.62919,-4.65465 23.26371,-2.027 31.93516,-9.20959 6.42859,5.40387 5.95134,18.47546 2.60733,26.40821 -3.41688,14.79325 1.21143,32.45354 -9.83766,44.70608 -5.79473,7.30881 -14.19342,14.92369 -12.90625,25.1375 5.20924,8.81486 5.35836,19.27989 6.69776,29.16692 1.23095,9.67804 -1.00467,19.10721 -8.5232,25.75386 -4.67978,2.02103 -9.19451,4.43081 -10.31742,9.97143 z" style="fill:#000000;fill-opacity:1;stroke:#000000;stroke-width:1px;stroke-linecap:butt;stroke-linejoin:miter;stroke-opacity:1"/>
      <path d="m 371.07142,458.61218 c 0,7.39667 -5.99619,13.39286 -13.39286,13.39286 -7.39667,0 -13.39286,-5.99619 -13.39286,-13.39286 0,-7.39667 5.99619,-13.39285 13.39286,-13.39285 7.39667,0 13.39286,5.99618 13.39286,13.39285 z" sodipodi:ry="13.392858" sodipodi:rx="13.392858" sodipodi:cy="458.61218" sodipodi:cx="357.67856" id="path2832" style="fill:#000000;fill-opacity:1;stroke:#000000;stroke-width:5;stroke-miterlimit:4;stroke-opacity:1;stroke-dasharray:none;stroke-dashoffset:0" sodipodi:type="arc"/>
    </g>
  </g>
  <metadata>
    <rdf:RDF>
      <cc:Work>
        <dc:format>image/svg+xml</dc:format>
        <dc:type rdf:resource="http://purl.org/dc/dcmitype/StillImage"/>
        <cc:license rdf:resource="http://creativecommons.org/licenses/publicdomain/"/>
        <dc:publisher>
          <cc:Agent rdf:about="http://openclipart.org/">
            <dc:title>Open Clip Art Library</dc:title>
          </cc:Agent>
        </dc:publisher>
        <dc:title>Soccer player silhouette</dc:title>
        <dc:date>2010-08-02T04:40:56</dc:date>
        <dc:description>A silhouette of a soccer player dribbling.</dc:description>
        <dc:source>http://openclipart.org/detail/76003/soccer-player-silhouette-by-laobc-76003</dc:source>
        <dc:creator>
          <cc:Agent>
            <dc:title>laobc</dc:title>
          </cc:Agent>
        </dc:creator>
        <dc:subject>
          <rdf:Bag>
            <rdf:li>ball</rdf:li>
            <rdf:li>black and white</rdf:li>
            <rdf:li>clip art</rdf:li>
            <rdf:li>clipart</rdf:li>
            <rdf:li>dribble</rdf:li>
            <rdf:li>dribbling</rdf:li>
            <rdf:li>silhouette</rdf:li>
            <rdf:li>soccer</rdf:li>
            <rdf:li>sports</rdf:li>
            <rdf:li>sports2010</rdf:li>
          </rdf:Bag>
        </dc:subject>
      </cc:Work>
      <cc:License rdf:about="http://creativecommons.org/licenses/publicdomain/">
        <cc:permits rdf:resource="http://creativecommons.org/ns#Reproduction"/>
        <cc:permits rdf:resource="http://creativecommons.org/ns#Distribution"/>
        <cc:permits rdf:resource="http://creativecommons.org/ns#DerivativeWorks"/>
      </cc:License>
    </rdf:RDF>
  </metadata>
</svg>
